<?xml version="1.0" encoding="utf-8"?>
<!-- Generator: Adobe Illustrator 22.1.0, SVG Export Plug-In . SVG Version: 6.00 Build 0)  -->
<svg version="1.1" id="Layer_1" xmlns="http://www.w3.org/2000/svg" xmlns:xlink="http://www.w3.org/1999/xlink" x="0px" y="0px"
	 viewBox="0 0 507.3 119.7" style="enable-background:new 0 0 507.3 119.7;" xml:space="preserve">
<style type="text/css">
	.st0{fill:#FFFFFF;}
</style>
<path id="Szorty" class="st0" d="M110.8,9c-4.2,3.8-8.3,9.9-11.7,17.4c-3.1-0.6-6.1-1.4-9.1-2.3c2.4,2,5,3.8,7.7,5.5
	c-2.6,6.5-4.6,13.9-5.8,21.7C82.5,51,75.2,51.1,69.5,58c7.1-2.4,12.6-3.7,21.9-3c-0.3,2.8-0.6,5.7-0.7,8.6
	C76.7,63.2,66.1,69.2,62.2,81l-0.5,1.6l4.8-0.4l-0.1-1.5L62.9,81c1.1-2.4,2.6-4.6,4.5-6.5l0,0c1.8-0.1,3.5-0.3,5.3-0.5l-0.1-1.5
	c-1.1,0.1-2.2,0.2-3.3,0.3c1.7-1.4,3.7-2.5,5.8-3.4c0.9,3.6,2.4,9.7,4.1,18.7c3.1,15.4,4.5,25.3,4.5,25.3s-10.7,1.1-20.1,2.6
	s-17.9,3.5-17.9,3.5L42,109.2l-3.9,10.5c0,0-6.3-1.9-18.7-4.1S0,113.6,0,113.6s1.7-12.5,4-23.7c2.3-11.2,6.4-23.7,6.4-23.7
	s16.1,0.8,31.9,0.8c5.8,0,11.3-0.2,16.1-0.4c-0.7,4.9-1.1,9.9-1.3,14.8L54,81.8l0.1,1.5l4.9-0.5l0.1-1c3.6-30.9,24.5-58.3,46.5-77.2
	L110.8,9z M27.3,74.7c1.8,0.1,3.6,0.2,5.4,0.3l0.1-1.5c-1.8-0.1-3.6-0.2-5.4-0.3L27.3,74.7z M32.1,82.2L32,83.6l4.9,0.5l0.2-1.5
	L32.1,82.2z M19.3,74c1.8,0.2,3.6,0.4,5.4,0.5l0.1-1.5c-1.8-0.1-3.6-0.3-5.4-0.5L19.3,74z M11.3,73.1c1.8,0.3,3.6,0.5,5.4,0.7
	l0.2-1.5c-1.8-0.2-3.6-0.4-5.3-0.7L11.3,73.1z M7.6,88.5l1.5,0.1c0.1-1.5,0.3-3.1,0.6-4.8l-1.5-0.3C7.9,85.3,7.7,87,7.6,88.5z
	 M8,96.2l1.4-0.4C9.1,94.6,9,93,9,91.2l-1.5,0C7.5,93.1,7.7,94.8,8,96.2z M13.8,100.9c-1.6-0.8-2.8-1.8-3.4-2.8l-1.3,0.8
	c0.8,1.3,2.2,2.4,4,3.4L13.8,100.9z M14.6,80.3l-4.9-0.5l-0.2,1.5l4.9,0.5L14.6,80.3z M20.7,102.7c-1.6-0.2-3.2-0.5-4.6-0.9
	l-0.5,1.4c1.5,0.5,3.2,0.8,4.9,1L20.7,102.7z M22.1,81.1l-4.9-0.5L17,82.1l4.9,0.5L22.1,81.1z M28.3,103.9l-0.3-1.5
	c-1.4,0.3-3,0.5-4.7,0.5l0.1,1.5C25.1,104.4,26.7,104.2,28.3,103.9z M29.5,81.9l-4.9-0.5l-0.2,1.5l4.9,0.5L29.5,81.9z M35.2,100.1
	l-1.2-1c-0.4,0.5-0.9,0.9-1.3,1.3c-0.7,0.5-1.5,0.9-2.4,1.3l0.5,1.4c1-0.4,1.9-0.9,2.7-1.5C34.2,101.2,34.7,100.7,35.2,100.1z
	 M38.2,92.9l-1.5-0.3c-0.3,1.7-0.8,3.2-1.4,4.5l1.3,0.7C37.4,96.4,37.9,94.8,38.2,92.9z M38.6,87.3c0-0.8,0-1.5-0.1-2.1l-1.5,0.1
	c0,0.6,0.1,1.2,0.1,2c0,1,0,1.9-0.1,2.8l1.5,0.1C38.6,89.3,38.6,88.3,38.6,87.3z M40.7,73.8c-1.8,0-3.6-0.1-5.4-0.2l-0.1,1.5
	c1.8,0.1,3.6,0.1,5.4,0.2L40.7,73.8z M51.3,73.8l0,1.5c1.8,0,3.6-0.1,5.4-0.2l-0.1-1.5C54.9,73.8,53.1,73.8,51.3,73.8z M51.4,82
	l-4.9,0.5l0.1,1.5l4.9-0.5L51.4,82z M43.3,75.4c0.8,0,1.7,0,2.5,0c1,0,1.9,0,2.9,0l0-1.5c-1.8,0-3.6,0-5.4,0L43.3,75.4z M45,90.1
	l1.5-0.1c-0.1-0.8-0.1-1.6-0.1-2.4c0-0.8,0-1.6,0.1-2.4L45,85.1c-0.1,0.8-0.1,1.7-0.1,2.5C44.9,88.4,44.9,89.3,45,90.1z M48.1,97
	c-0.6-1.3-1-2.8-1.3-4.5l-1.5,0.2c0.3,1.9,0.8,3.5,1.5,4.9L48.1,97z M53,101.6c-0.9-0.4-1.7-0.8-2.4-1.3c-0.5-0.4-0.9-0.8-1.3-1.3
	l-1.2,1c0.5,0.6,1,1.1,1.6,1.5c0.8,0.6,1.7,1.1,2.7,1.5L53,101.6z M74.3,99L73,98.2c-0.7,1.1-1.9,2-3.4,2.8l0.7,1.3
	C72.1,101.4,73.5,100.3,74.3,99z M76,91.4l-1.5,0c0,1.8-0.2,3.4-0.6,4.7l1.4,0.4C75.8,95,76,93.3,76,91.4z M73.8,84
	c0.3,1.7,0.5,3.3,0.6,4.8l1.5-0.1c-0.1-1.6-0.3-3.2-0.6-4.9L73.8,84z M69,80.4l0.1,1.5l4.9-0.5L73.8,80L69,80.4z M62.6,102.8
	l0.1,1.5c1.8-0.2,3.4-0.5,5-1l-0.4-1.4C65.8,102.3,64.3,102.6,62.6,102.8z M60.1,102.9c-1.7,0-3.2-0.2-4.7-0.5l-0.3,1.5
	c1.6,0.4,3.3,0.5,5,0.6L60.1,102.9z M104.8,0C78.1,19.2,61.6,41.6,58.7,76.5C64.8,46.2,77.4,23.8,104.8,0z"/>
<path id="Uwolnij_moc" class="st0" d="M122.3,87.9h3v10.3c0,0.9,0.1,1.5,0.2,1.9s0.4,0.7,0.8,0.9c0.4,0.2,0.8,0.3,1.3,0.3
	c0.5,0,1-0.1,1.4-0.4c0.4-0.2,0.7-0.6,0.8-0.9c0.1-0.4,0.2-1.1,0.2-2.2v-9.9h3v9.5c0,1.6-0.1,2.7-0.3,3.3c-0.2,0.6-0.5,1.2-1,1.8
	c-0.5,0.6-1.1,1-1.8,1.3c-0.7,0.3-1.4,0.4-2.3,0.4c-1.1,0-2.1-0.3-3-0.8c-0.9-0.5-1.5-1.2-1.8-2c-0.4-0.8-0.5-2.1-0.5-4V87.9z
	 M135.3,87.9h3l2.3,10.2l2.8-10.2h2.5l2.9,10.2l2.3-10.2h3l-3.6,15.9h-2.9l-2.9-10.3l-2.9,10.3h-2.9L135.3,87.9z M163.9,87.5
	c2.2,0,4.2,0.8,5.8,2.5c1.6,1.6,2.4,3.6,2.4,6c0,2.3-0.8,4.3-2.4,5.9c-1.6,1.6-3.5,2.4-5.8,2.4c-2.4,0-4.4-0.8-5.9-2.5
	c-1.6-1.7-2.4-3.6-2.4-5.9c0-1.5,0.4-2.9,1.1-4.2c0.7-1.3,1.7-2.3,3-3S162.4,87.5,163.9,87.5z M163.8,90.5c-1.5,0-2.7,0.5-3.7,1.5
	s-1.5,2.3-1.5,3.9c0,1.8,0.6,3.2,1.9,4.2c1,0.8,2.1,1.2,3.4,1.2c1.4,0,2.7-0.5,3.7-1.6c1-1,1.5-2.3,1.5-3.8c0-1.5-0.5-2.8-1.5-3.9
	C166.5,91,165.3,90.5,163.8,90.5z M174.9,87.9h3v13.1h4.4v2.9h-7.4V87.9z M184.6,87.9h2.9l6.8,10.5V87.9h3v15.9h-2.9l-6.8-10.5v10.5
	h-3V87.9z M200.7,87.9h3v15.9h-3V87.9z M211.1,87.9h3v10.6c0,1.7-0.1,2.9-0.4,3.5c-0.3,0.7-0.7,1.2-1.3,1.6
	c-0.6,0.4-1.3,0.6-2.2,0.6c-1.7,0-3.2-0.8-4.5-2.3l2.2-2c0.5,0.5,0.9,0.9,1.2,1.1c0.3,0.2,0.7,0.3,1,0.3c0.3,0,0.6-0.1,0.7-0.4
	c0.2-0.3,0.2-0.9,0.2-1.8V87.9z M225.7,87.9h2.9l3.7,11.1l3.7-11.1h2.9l2.7,15.9h-2.9L237,93.8l-3.4,10.1H231l-3.3-10.1l-1.7,10.1
	H223L225.7,87.9z M251.5,87.5c2.2,0,4.2,0.8,5.8,2.5c1.6,1.6,2.4,3.6,2.4,6c0,2.3-0.8,4.3-2.4,5.9c-1.6,1.6-3.5,2.4-5.8,2.4
	c-2.4,0-4.4-0.8-5.9-2.5c-1.6-1.7-2.4-3.6-2.4-5.9c0-1.5,0.4-2.9,1.1-4.2c0.7-1.3,1.7-2.3,3-3S250,87.5,251.5,87.5z M251.5,90.5
	c-1.5,0-2.7,0.5-3.7,1.5s-1.5,2.3-1.5,3.9c0,1.8,0.6,3.2,1.9,4.2c1,0.8,2.1,1.2,3.4,1.2c1.4,0,2.7-0.5,3.7-1.6c1-1,1.5-2.3,1.5-3.8
	c0-1.5-0.5-2.8-1.5-3.9C254.2,91,252.9,90.5,251.5,90.5z M277.1,90.7l-2.1,2c-1.4-1.5-3.1-2.3-4.8-2.3c-1.5,0-2.8,0.5-3.8,1.6
	c-1,1-1.6,2.3-1.6,3.9c0,1.1,0.2,2,0.7,2.8c0.5,0.8,1.1,1.5,1.9,1.9c0.8,0.5,1.8,0.7,2.8,0.7c0.9,0,1.7-0.2,2.4-0.5
	c0.7-0.3,1.5-0.9,2.4-1.8l2,2.1c-1.2,1.1-2.3,1.9-3.3,2.4c-1,0.4-2.2,0.7-3.6,0.7c-2.5,0-4.5-0.8-6.1-2.4c-1.6-1.6-2.4-3.6-2.4-6
	c0-1.6,0.4-3,1.1-4.2c0.7-1.2,1.7-2.2,3.1-3c1.3-0.8,2.8-1.1,4.3-1.1c1.3,0,2.6,0.3,3.8,0.8C275.2,88.9,276.3,89.7,277.1,90.7z
	 M286.4,87.9h3v10.3c0,0.9,0.1,1.5,0.2,1.9s0.4,0.7,0.8,0.9c0.4,0.2,0.8,0.3,1.3,0.3c0.5,0,1-0.1,1.4-0.4c0.4-0.2,0.7-0.6,0.8-0.9
	s0.2-1.1,0.2-2.2v-9.9h3v9.5c0,1.6-0.1,2.7-0.3,3.3c-0.2,0.6-0.5,1.2-1,1.8c-0.5,0.6-1.1,1-1.8,1.3c-0.7,0.3-1.4,0.4-2.3,0.4
	c-1.2,0-2.2-0.3-3-0.8s-1.5-1.2-1.8-2c-0.4-0.8-0.5-2.1-0.5-4V87.9z M300.7,87.9h3v5.5l4.3-5.5h3.6l-5.5,7.1l6.1,8.8h-3.6l-4.9-7.1
	v7.1h-3V87.9z M314.5,87.9h3.2c1.8,0,3,0.2,3.7,0.5c0.7,0.3,1.3,0.8,1.8,1.6c0.5,0.7,0.7,1.6,0.7,2.6c0,1-0.2,1.9-0.7,2.6
	c-0.5,0.7-1.3,1.2-2.3,1.6l3.8,7.1h-3.3l-3.6-6.8h-0.3v6.8h-3V87.9z M317.6,94.1h0.9c1,0,1.6-0.1,2-0.4c0.4-0.3,0.5-0.7,0.5-1.3
	c0-0.3-0.1-0.7-0.3-0.9c-0.2-0.3-0.4-0.4-0.7-0.6s-0.9-0.2-1.7-0.2h-0.8V94.1z M326,87.9h3.2l3,5.7l2.9-5.7h3.2l-4.6,9v6.9h-3v-6.9
	L326,87.9z M339.3,87.9h8.8v3h-2.9v13h-3.1v-13h-2.8V87.9z M354.9,87.9h3.1l6.1,15.9H361l-1.2-3.3h-6.5l-1.3,3.3h-3.1L354.9,87.9z
	 M356.5,92.1l-2.1,5.5h4.2L356.5,92.1z M362.3,103.8h1.6c-1,0.6-1.5,1.2-1.5,1.8c0,0.3,0.1,0.5,0.3,0.7c0.2,0.2,0.5,0.3,0.8,0.3
	c0.2,0,0.6-0.1,0.9-0.3v1.7c-0.5,0.1-1,0.2-1.4,0.2c-0.9,0-1.5-0.2-2-0.6s-0.7-0.9-0.7-1.5c0-0.4,0.2-0.9,0.5-1.3
	C361.2,104.5,361.7,104.1,362.3,103.8z M371.7,87.9h3l2.3,10.2l2.8-10.2h2.5l2.9,10.2l2.3-10.2h3l-3.6,15.9H384l-2.9-10.3l-2.9,10.3
	h-2.9L371.7,87.9z M407.6,90.1l-2.2,2c-0.8-1.1-1.6-1.6-2.4-1.6c-0.4,0-0.7,0.1-1,0.3c-0.3,0.2-0.4,0.5-0.4,0.7
	c0,0.3,0.1,0.5,0.3,0.8c0.2,0.3,1,1,2.2,2c1.2,1,1.8,1.6,2.1,1.8c0.6,0.6,1,1.2,1.3,1.8c0.3,0.6,0.4,1.2,0.4,1.9
	c0,1.3-0.5,2.4-1.3,3.2c-0.9,0.9-2.1,1.3-3.5,1.3c-1.1,0-2.1-0.3-3-0.8s-1.6-1.4-2.2-2.6l2.5-1.5c0.8,1.4,1.6,2.1,2.6,2.1
	c0.5,0,1-0.2,1.3-0.5s0.5-0.7,0.5-1.1c0-0.4-0.1-0.7-0.4-1.1c-0.3-0.4-0.9-0.9-1.8-1.7c-1.7-1.4-2.8-2.5-3.3-3.3s-0.8-1.5-0.8-2.3
	c0-1.1,0.4-2.1,1.3-2.8c0.8-0.8,1.9-1.2,3.1-1.2c0.8,0,1.5,0.2,2.3,0.6C406,88.4,406.7,89.1,407.6,90.1z M409.9,87.9h9.6l-5.6,13
	h5.3v2.9h-9.7l5.6-12.9h-5.2V87.9z M429.3,87.5c2.2,0,4.2,0.8,5.8,2.5s2.4,3.6,2.4,6c0,2.3-0.8,4.3-2.4,5.9
	c-1.6,1.6-3.5,2.4-5.8,2.4c-2.4,0-4.4-0.8-5.9-2.5c-1.6-1.7-2.4-3.6-2.4-5.9c0-1.5,0.4-2.9,1.1-4.2c0.7-1.3,1.7-2.3,3-3
	S427.8,87.5,429.3,87.5z M429.2,90.5c-1.5,0-2.7,0.5-3.7,1.5s-1.5,2.3-1.5,3.9c0,1.8,0.6,3.2,1.9,4.2c1,0.8,2.1,1.2,3.4,1.2
	c1.4,0,2.6-0.5,3.7-1.6c1-1,1.5-2.3,1.5-3.8c0-1.5-0.5-2.8-1.5-3.9C431.9,91,430.7,90.5,429.2,90.5z M440.5,87.9h3.2
	c1.8,0,3,0.2,3.7,0.5c0.7,0.3,1.3,0.8,1.8,1.6c0.5,0.7,0.7,1.6,0.7,2.6c0,1-0.2,1.9-0.7,2.6c-0.5,0.7-1.3,1.2-2.3,1.6l3.8,7.1h-3.3
	l-3.6-6.8h-0.3v6.8h-3V87.9z M443.5,94.1h0.9c1,0,1.6-0.1,2-0.4c0.4-0.3,0.5-0.7,0.5-1.3c0-0.3-0.1-0.7-0.3-0.9
	c-0.2-0.3-0.4-0.4-0.7-0.6s-0.9-0.2-1.7-0.2h-0.8V94.1z M451.6,87.9h8.8v3h-2.9v13h-3.1v-13h-2.8V87.9z M467.2,87.9h3.1l6.1,15.9
	h-3.1l-1.2-3.3h-6.5l-1.3,3.3h-3.1L467.2,87.9z M468.8,92.1l-2.1,5.5h4.2L468.8,92.1z M493.3,90.7l-2.1,2c-1.4-1.5-3.1-2.3-4.8-2.3
	c-1.5,0-2.8,0.5-3.8,1.6c-1,1-1.6,2.3-1.6,3.9c0,1.1,0.2,2,0.7,2.8c0.5,0.8,1.1,1.5,1.9,1.9c0.8,0.5,1.8,0.7,2.8,0.7
	c0.9,0,1.7-0.2,2.4-0.5c0.7-0.3,1.5-0.9,2.4-1.8l2,2.1c-1.2,1.1-2.3,1.9-3.3,2.4s-2.2,0.7-3.6,0.7c-2.5,0-4.5-0.8-6.1-2.4
	c-1.6-1.6-2.4-3.6-2.4-6c0-1.6,0.4-3,1.1-4.2c0.7-1.2,1.7-2.2,3.1-3c1.3-0.8,2.8-1.1,4.3-1.1c1.3,0,2.6,0.3,3.8,0.8
	C491.4,88.9,492.4,89.7,493.3,90.7z M495.9,87.9h3.1v6h5.3v-6h3v15.9h-3v-7H499v7h-3.1V87.9z"/>
<path id="Szortal" class="st0" d="M233.6,77.8h-49c-1.6,0-3.1-0.5-4.3-1.4c-1.2-0.9-1.8-2.2-1.8-3.9c0-1,0.3-1.9,0.8-2.8
	c0.5-0.9,1.2-1.7,2.1-2.4l15.4-12.1c1.8-1.4,3.3-2.6,4.5-3.6c1.3-1,2.4-1.8,3.3-2.5c0.9-0.7,1.7-1.2,2.3-1.7
	c0.6-0.4,1.1-0.8,1.5-1.1c-0.6,0-1.3,0.1-2,0.1c-0.8,0-1.7,0.1-2.9,0.1c-1.2,0-2.5,0-4.1,0c-1.6,0-3.4,0-5.5,0h-16.9l8.3-11h38.9
	c1.6,0,3.1,0.5,4.3,1.4c1.2,0.9,1.8,2.2,1.8,3.9c0,1-0.3,1.9-0.8,2.8c-0.5,0.9-1.2,1.7-2.1,2.4l-15.6,12.3c-1.7,1.4-3.2,2.6-4.5,3.5
	c-1.3,1-2.3,1.8-3.2,2.5c-0.9,0.7-1.6,1.3-2.2,1.7c-0.6,0.4-1.1,0.8-1.5,1.1c0.5,0,1.4-0.1,2.6-0.1c1.2,0,2.6,0,4.1-0.1
	c1.6,0,3.2,0,5-0.1c1.8,0,3.5,0,5.1,0h8.2L233.6,77.8z M260.3,35c10.7,0,18.8,1.7,24.2,5.2c5.4,3.5,8.1,9,8.1,16.5
	c0,7.6-2.7,13.1-8.1,16.6c-5.4,3.5-13.5,5.2-24.2,5.2c-10.8,0-18.9-1.7-24.3-5.2c-5.4-3.5-8-9-8-16.6c0-7.5,2.7-13,8.1-16.5
	C241.5,36.7,249.5,35,260.3,35z M260.3,67.5c3.4,0,6.3-0.1,8.7-0.4c2.4-0.3,4.3-0.8,5.8-1.6c1.5-0.8,2.5-1.9,3.2-3.3
	c0.7-1.4,1-3.2,1-5.5s-0.3-4.1-1-5.5c-0.7-1.4-1.7-2.5-3.2-3.3c-1.5-0.8-3.4-1.3-5.8-1.6c-2.4-0.3-5.3-0.4-8.7-0.4
	c-3.4,0-6.3,0.1-8.7,0.4c-2.4,0.3-4.3,0.8-5.8,1.6c-1.5,0.8-2.5,1.9-3.2,3.3c-0.7,1.4-1,3.2-1,5.5s0.3,4.1,1,5.5
	c0.7,1.4,1.7,2.5,3.2,3.3c1.5,0.8,3.4,1.3,5.8,1.6C254,67.4,256.9,67.5,260.3,67.5z M359,77.8h-20.3L326.2,67h-16.9v10.9h-13V56.3
	h36.7c2,0,3.7-0.4,5.1-1.3c1.4-0.8,2.1-2,2.1-3.5c0-1.6-0.6-2.9-1.9-3.7s-3-1.2-5.3-1.2h-36.7l-9.4-11h44.9c2.4,0,4.9,0.2,7.4,0.7
	c2.6,0.4,4.9,1.2,7,2.4c2.1,1.1,3.8,2.7,5.2,4.6c1.4,1.9,2,4.4,2,7.4c0,1.6-0.3,3.2-0.8,4.7c-0.5,1.5-1.2,2.8-2.2,4
	c-0.9,1.2-2.1,2.2-3.5,3c-1.4,0.8-2.9,1.4-4.6,1.7C343.2,64.6,359,77.8,359,77.8z M406.5,35.7l-9.3,11h-12.5v31.2h-13V46.6h-12.7
	l-9.4-11H406.5z M409.7,77.8l7.9-10.8c0,0,16.8,0,17.8,0.1c-0.6-0.8-11.3-15.8-11.3-15.8l-19.5,26.6h-15.4l27-38.1
	c0.9-1.2,2-2.3,3.3-3.3c1.3-1,3-1.4,5.1-1.4c2,0,3.6,0.5,4.9,1.4c1.3,0.9,2.4,2,3.4,3.4l26.3,38.1H409.7z M507.2,67l-8.4,10.8h-37.2
	V35.7h13V67H507.2z M137,50.2c-1,0-1.8-0.8-1.8-1.8s0.8-1.8,1.8-1.8l0,0h30.6l8.9-10.9h-44.8c-6.4,0-11.6,5.7-11.6,12.7
	S125.3,61,131.7,61h30.1c1.8,0,3.3,1.3,3.3,3s-1.5,3-3.3,3h-32.4l-8.9,10.9h43c8.1,0,14.7-6.2,14.7-13.8s-6.6-13.8-14.7-13.8H137
	L137,50.2z"/>
</svg>
